<svg width="206" height="58" viewBox="0 0 206 58" fill="none" xmlns="http://www.w3.org/2000/svg">
<rect width="210.317" height="57.708" fill="#7F5AF0"/>
<path fill-rule="evenodd" clip-rule="evenodd" d="M64.7547 28.8539C64.7547 37.3573 56.8759 44.2507 47.1583 44.2507C44.0351 44.2638 40.9546 43.5244 38.1776 42.0952L29.562 44.2507L32.505 37.3815C30.6464 34.94 29.562 32.0081 29.562 28.8539C29.562 20.3505 37.4408 13.4571 47.1583 13.4571C56.8759 13.4571 64.7547 20.3505 64.7547 28.8539ZM40.5597 26.6544H36.1606V31.0535H40.5597V26.6544ZM58.156 26.6544H53.757V31.0535H58.156V26.6544ZM44.9588 26.6544H49.3579V31.0535H44.9588V26.6544Z" fill="#FFFFFE"/>
<path d="M87.4796 35.554H93.3546V37.854H84.6296V20.479H87.4796V35.554ZM95.438 22.254C94.9214 22.254 94.488 22.079 94.138 21.729C93.788 21.379 93.613 20.9457 93.613 20.429C93.613 19.9123 93.788 19.479 94.138 19.129C94.488 18.779 94.9214 18.604 95.438 18.604C95.938 18.604 96.363 18.779 96.713 19.129C97.063 19.479 97.238 19.9123 97.238 20.429C97.238 20.9457 97.063 21.379 96.713 21.729C96.363 22.079 95.938 22.254 95.438 22.254ZM96.838 24.079V37.854H93.988V24.079H96.838ZM104.155 35.304L108.055 24.079H111.08L105.83 37.854H102.43L97.2048 24.079H100.255L104.155 35.304ZM124.109 30.629C124.109 31.1457 124.076 31.6123 124.009 32.029H113.484C113.567 33.129 113.976 34.0123 114.709 34.679C115.442 35.3457 116.342 35.679 117.409 35.679C118.942 35.679 120.026 35.0373 120.659 33.754H123.734C123.317 35.0207 122.559 36.0623 121.459 36.879C120.376 37.679 119.026 38.079 117.409 38.079C116.092 38.079 114.909 37.7873 113.859 37.204C112.826 36.604 112.009 35.7707 111.409 34.704C110.826 33.6207 110.534 32.3707 110.534 30.954C110.534 29.5373 110.817 28.2957 111.384 27.229C111.967 26.1457 112.776 25.3123 113.809 24.729C114.859 24.1457 116.059 23.854 117.409 23.854C118.709 23.854 119.867 24.1373 120.884 24.704C121.901 25.2707 122.692 26.0707 123.259 27.104C123.826 28.1207 124.109 29.2957 124.109 30.629ZM121.134 29.729C121.117 28.679 120.742 27.8373 120.009 27.204C119.276 26.5707 118.367 26.254 117.284 26.254C116.301 26.254 115.459 26.5707 114.759 27.204C114.059 27.8207 113.642 28.6623 113.509 29.729H121.134ZM128.958 30.954C128.958 29.5373 129.241 28.2957 129.808 27.229C130.391 26.1457 131.191 25.3123 132.208 24.729C133.225 24.1457 134.391 23.854 135.708 23.854C137.375 23.854 138.75 24.254 139.833 25.054C140.933 25.8373 141.675 26.9623 142.058 28.429H138.983C138.733 27.7457 138.333 27.2123 137.783 26.829C137.233 26.4457 136.541 26.254 135.708 26.254C134.541 26.254 133.608 26.6707 132.908 27.504C132.225 28.3207 131.883 29.4707 131.883 30.954C131.883 32.4373 132.225 33.5957 132.908 34.429C133.608 35.2623 134.541 35.679 135.708 35.679C137.358 35.679 138.45 34.954 138.983 33.504H142.058C141.658 34.904 140.908 36.0207 139.808 36.854C138.708 37.6707 137.341 38.079 135.708 38.079C134.391 38.079 133.225 37.7873 132.208 37.204C131.191 36.604 130.391 35.7707 129.808 34.704C129.241 33.6207 128.958 32.3707 128.958 30.954ZM150.273 23.854C151.323 23.854 152.257 24.079 153.073 24.529C153.907 24.979 154.557 25.6457 155.023 26.529C155.507 27.4123 155.748 28.479 155.748 29.729V37.854H152.923V30.154C152.923 28.9207 152.615 27.979 151.998 27.329C151.382 26.6623 150.54 26.329 149.473 26.329C148.407 26.329 147.557 26.6623 146.923 27.329C146.307 27.979 145.998 28.9207 145.998 30.154V37.854H143.148V19.354H145.998V25.679C146.482 25.0957 147.09 24.6457 147.823 24.329C148.573 24.0123 149.39 23.854 150.273 23.854ZM156.684 30.904C156.684 29.5207 156.967 28.2957 157.534 27.229C158.117 26.1623 158.9 25.3373 159.884 24.754C160.884 24.154 161.984 23.854 163.184 23.854C164.267 23.854 165.209 24.0707 166.009 24.504C166.825 24.9207 167.475 25.4457 167.959 26.079V24.079H170.834V37.854H167.959V35.804C167.475 36.454 166.817 36.9957 165.984 37.429C165.15 37.8623 164.2 38.079 163.134 38.079C161.95 38.079 160.867 37.779 159.884 37.179C158.9 36.5623 158.117 35.7123 157.534 34.629C156.967 33.529 156.684 32.2873 156.684 30.904ZM167.959 30.954C167.959 30.004 167.759 29.179 167.359 28.479C166.975 27.779 166.467 27.2457 165.834 26.879C165.2 26.5123 164.517 26.329 163.784 26.329C163.05 26.329 162.367 26.5123 161.734 26.879C161.1 27.229 160.584 27.754 160.184 28.454C159.8 29.1373 159.609 29.954 159.609 30.904C159.609 31.854 159.8 32.6873 160.184 33.404C160.584 34.1207 161.1 34.6707 161.734 35.054C162.384 35.4207 163.067 35.604 163.784 35.604C164.517 35.604 165.2 35.4207 165.834 35.054C166.467 34.6873 166.975 34.154 167.359 33.454C167.759 32.7373 167.959 31.904 167.959 30.954ZM176.152 26.404V34.029C176.152 34.5457 176.269 34.9207 176.502 35.154C176.752 35.3707 177.169 35.479 177.752 35.479H179.502V37.854H177.252C175.969 37.854 174.985 37.554 174.302 36.954C173.619 36.354 173.277 35.379 173.277 34.029V26.404H171.652V24.079H173.277V20.654H176.152V24.079H179.502V26.404H176.152Z" fill="#FFFFFE"/>
</svg>
