<svg width="291" height="93" viewBox="0 0 291 93" fill="none" xmlns="http://www.w3.org/2000/svg">
<rect width="291" height="93" fill="#0B0711"/>
<g clip-path="url(#clip0_50_1658)">
<path d="M60.4791 23.1665C62.8095 23.1667 65.0842 23.8203 66.9988 25.04C68.9134 26.2596 70.3764 27.987 71.1922 29.991C72.0079 31.995 72.1374 34.18 71.5632 36.2534C70.9891 38.3268 69.7388 40.1897 67.9796 41.5928C68.8819 43.8492 69.375 46.2898 69.375 48.8332C69.3731 51.9013 68.639 54.9317 67.2242 57.7113C65.8094 60.4909 63.7484 62.9522 61.1861 64.9219C58.6239 66.8917 55.6225 68.3221 52.3933 69.1126C49.1642 69.903 45.7855 70.0343 42.4951 69.4971C39.2047 68.96 36.0825 67.7675 33.3481 66.0035C30.6137 64.2395 28.3335 61.9469 26.668 59.287C25.0025 56.627 23.9921 53.6644 23.7078 50.6074C23.4236 47.5504 23.8725 44.4734 25.0229 41.5928C23.7777 40.5994 22.7813 39.3705 22.1021 37.9904C21.4229 36.6103 21.0769 35.1116 21.088 33.5972C21.099 32.0827 21.4667 30.5884 22.166 29.2167C22.8652 27.8451 23.8794 26.6285 25.1389 25.6505C26.3985 24.6724 27.8735 23.9561 29.463 23.5506C31.0524 23.1452 32.7186 23.0601 34.3472 23.3014C35.9758 23.5426 37.5283 24.1045 38.8982 24.9483C40.268 25.7922 41.4228 26.8981 42.2833 28.1902C45.0721 27.7125 47.933 27.7125 50.7217 28.1902C51.7422 26.6549 53.1758 25.3864 54.8846 24.5066C56.5934 23.6268 58.52 23.1654 60.4791 23.1665ZM41.4166 48.8332H36.3333C36.3333 51.2681 37.3698 53.6067 39.2217 55.3499C41.0736 57.0931 43.5942 58.1028 46.2457 58.1637C48.8973 58.2246 51.4697 57.3318 53.4143 55.6758C55.3588 54.0198 56.5214 51.7318 56.6539 49.2998L56.6666 48.8332H51.5833C51.5892 50.0441 51.0821 51.2098 50.1692 52.0839C49.2562 52.9579 48.0089 53.472 46.6908 53.5174C45.3726 53.5629 44.0868 53.1361 43.105 52.3274C42.1232 51.5186 41.5224 50.3911 41.4293 49.1832L41.4166 48.8332Z" fill="#FFFFFE"/>
</g>
<path d="M114.358 41.5792C114.358 43.2384 113.977 44.7616 113.215 46.1488C112.454 47.5088 111.284 48.6104 109.706 49.4536C108.129 50.2968 106.17 50.7184 103.831 50.7184H99.5064V61H92.5296V32.3584H103.831C106.116 32.3584 108.047 32.7528 109.625 33.5416C111.202 34.3304 112.386 35.4184 113.174 36.8056C113.963 38.1928 114.358 39.784 114.358 41.5792ZM103.301 45.1696C104.634 45.1696 105.626 44.8568 106.279 44.2312C106.932 43.6056 107.258 42.7216 107.258 41.5792C107.258 40.4368 106.932 39.5528 106.279 38.9272C105.626 38.3016 104.634 37.9888 103.301 37.9888H99.5064V45.1696H103.301ZM124.967 37.948V43.7416H134.31V49.1272H124.967V55.4104H135.534V61H117.99V32.3584H135.534V37.948H124.967ZM160.667 32.3584V37.948H153.078V61H146.102V37.948H138.513V32.3584H160.667Z" fill="#FFFFFE"/>
<path d="M174.532 61.2856C172.437 61.2856 170.561 60.9456 168.901 60.2656C167.242 59.5856 165.909 58.5792 164.903 57.2464C163.924 55.9136 163.407 54.3088 163.353 52.432H170.778C170.887 53.4928 171.254 54.3088 171.88 54.88C172.505 55.424 173.321 55.696 174.328 55.696C175.361 55.696 176.177 55.4648 176.776 55.0024C177.374 54.5128 177.673 53.8464 177.673 53.0032C177.673 52.296 177.429 51.7112 176.939 51.2488C176.477 50.7864 175.892 50.4056 175.185 50.1064C174.505 49.8072 173.525 49.4672 172.247 49.0864C170.397 48.5152 168.888 47.944 167.718 47.3728C166.549 46.8016 165.542 45.9584 164.699 44.8432C163.856 43.728 163.434 42.2728 163.434 40.4776C163.434 37.812 164.4 35.7312 166.331 34.2352C168.262 32.712 170.778 31.9504 173.879 31.9504C177.034 31.9504 179.577 32.712 181.509 34.2352C183.44 35.7312 184.473 37.8256 184.609 40.5184H177.061C177.007 39.5936 176.667 38.8728 176.041 38.356C175.416 37.812 174.613 37.54 173.634 37.54C172.791 37.54 172.111 37.7712 171.594 38.2336C171.077 38.6688 170.819 39.308 170.819 40.1512C170.819 41.076 171.254 41.7968 172.125 42.3136C172.995 42.8304 174.355 43.388 176.205 43.9864C178.054 44.612 179.55 45.2104 180.693 45.7816C181.862 46.3528 182.869 47.1824 183.712 48.2704C184.555 49.3584 184.977 50.7592 184.977 52.4728C184.977 54.1048 184.555 55.5872 183.712 56.92C182.896 58.2528 181.699 59.3136 180.121 60.1024C178.544 60.8912 176.681 61.2856 174.532 61.2856ZM214.077 32.3584V61H207.1V49.2088H196.247V61H189.27V32.3584H196.247V43.5784H207.1V32.3584H214.077ZM232.659 61.2856C229.966 61.2856 227.491 60.66 225.233 59.4088C223.003 58.1576 221.221 56.4168 219.888 54.1864C218.583 51.9288 217.93 49.3992 217.93 46.5976C217.93 43.796 218.583 41.28 219.888 39.0496C221.221 36.8192 223.003 35.0784 225.233 33.8272C227.491 32.576 229.966 31.9504 232.659 31.9504C235.352 31.9504 237.813 32.576 240.044 33.8272C242.301 35.0784 244.069 36.8192 245.348 39.0496C246.653 41.28 247.306 43.796 247.306 46.5976C247.306 49.3992 246.653 51.9288 245.348 54.1864C244.042 56.4168 242.274 58.1576 240.044 59.4088C237.813 60.66 235.352 61.2856 232.659 61.2856ZM232.659 54.9208C234.944 54.9208 236.766 54.1592 238.126 52.636C239.513 51.1128 240.207 49.1 240.207 46.5976C240.207 44.068 239.513 42.0552 238.126 40.5592C236.766 39.036 234.944 38.2744 232.659 38.2744C230.347 38.2744 228.497 39.0224 227.11 40.5184C225.75 42.0144 225.07 44.0408 225.07 46.5976C225.07 49.1272 225.75 51.1536 227.11 52.6768C228.497 54.1728 230.347 54.9208 232.659 54.9208ZM273.015 41.5792C273.015 43.2384 272.635 44.7616 271.873 46.1488C271.111 47.5088 269.942 48.6104 268.364 49.4536C266.787 50.2968 264.828 50.7184 262.489 50.7184H258.164V61H251.187V32.3584H262.489C264.774 32.3584 266.705 32.7528 268.283 33.5416C269.86 34.3304 271.043 35.4184 271.832 36.8056C272.621 38.1928 273.015 39.784 273.015 41.5792ZM261.959 45.1696C263.291 45.1696 264.284 44.8568 264.937 44.2312C265.59 43.6056 265.916 42.7216 265.916 41.5792C265.916 40.4368 265.59 39.5528 264.937 38.9272C264.284 38.3016 263.291 37.9888 261.959 37.9888H258.164V45.1696H261.959Z" fill="#7F5AF0"/>
<defs>
<clipPath id="clip0_50_1658">
<rect width="61" height="56" fill="white" transform="translate(16 18.5)"/>
</clipPath>
</defs>
</svg>
