<svg width="182" height="31" viewBox="0 0 182 31" fill="none" xmlns="http://www.w3.org/2000/svg">
<path d="M22.3576 10.5792C22.3576 12.2384 21.9768 13.7616 21.2152 15.1488C20.4536 16.5088 19.284 17.6104 17.7064 18.4536C16.1288 19.2968 14.1704 19.7184 11.8312 19.7184H7.5064V30H0.5296V1.3584H11.8312C14.116 1.3584 16.0472 1.7528 17.6248 2.5416C19.2024 3.3304 20.3856 4.4184 21.1744 5.8056C21.9632 7.1928 22.3576 8.784 22.3576 10.5792ZM11.3008 14.1696C12.6336 14.1696 13.6264 13.8568 14.2792 13.2312C14.932 12.6056 15.2584 11.7216 15.2584 10.5792C15.2584 9.4368 14.932 8.5528 14.2792 7.9272C13.6264 7.3016 12.6336 6.9888 11.3008 6.9888H7.5064V14.1696H11.3008ZM32.9666 6.948V12.7416H42.3098V18.1272H32.9666V24.4104H43.5338V30H25.9898V1.3584H43.5338V6.948H32.9666ZM68.6672 1.3584V6.948H61.0784V30H54.1016V6.948H46.5128V1.3584H68.6672Z" fill="#FFFFFE"/>
<path d="M82.5319 30.2856C80.4375 30.2856 78.5607 29.9456 76.9015 29.2656C75.2423 28.5856 73.9095 27.5792 72.9031 26.2464C71.9239 24.9136 71.4071 23.3088 71.3527 21.432H78.7783C78.8871 22.4928 79.2543 23.3088 79.8799 23.88C80.5055 24.424 81.3215 24.696 82.3279 24.696C83.3615 24.696 84.1775 24.4648 84.7759 24.0024C85.3743 23.5128 85.6735 22.8464 85.6735 22.0032C85.6735 21.296 85.4287 20.7112 84.9391 20.2488C84.4767 19.7864 83.8919 19.4056 83.1847 19.1064C82.5047 18.8072 81.5255 18.4672 80.2471 18.0864C78.3975 17.5152 76.8879 16.944 75.7183 16.3728C74.5487 15.8016 73.5423 14.9584 72.6991 13.8432C71.8559 12.728 71.4343 11.2728 71.4343 9.4776C71.4343 6.812 72.3999 4.7312 74.3311 3.2352C76.2623 1.712 78.7783 0.950397 81.8791 0.950397C85.0343 0.950397 87.5775 1.712 89.5087 3.2352C91.4399 4.7312 92.4735 6.8256 92.6095 9.5184H85.0615C85.0071 8.5936 84.6671 7.8728 84.0415 7.356C83.4159 6.812 82.6135 6.54 81.6343 6.54C80.7911 6.54 80.1111 6.7712 79.5943 7.2336C79.0775 7.6688 78.8191 8.308 78.8191 9.1512C78.8191 10.076 79.2543 10.7968 80.1247 11.3136C80.9951 11.8304 82.3551 12.388 84.2047 12.9864C86.0543 13.612 87.5503 14.2104 88.6927 14.7816C89.8623 15.3528 90.8687 16.1824 91.7119 17.2704C92.5551 18.3584 92.9767 19.7592 92.9767 21.4728C92.9767 23.1048 92.5551 24.5872 91.7119 25.92C90.8959 27.2528 89.6991 28.3136 88.1215 29.1024C86.5439 29.8912 84.6807 30.2856 82.5319 30.2856ZM122.077 1.3584V30H115.1V18.2088H104.247V30H97.2702V1.3584H104.247V12.5784H115.1V1.3584H122.077ZM140.659 30.2856C137.966 30.2856 135.491 29.66 133.233 28.4088C131.003 27.1576 129.221 25.4168 127.888 23.1864C126.583 20.9288 125.93 18.3992 125.93 15.5976C125.93 12.796 126.583 10.28 127.888 8.0496C129.221 5.8192 131.003 4.0784 133.233 2.8272C135.491 1.576 137.966 0.950397 140.659 0.950397C143.352 0.950397 145.813 1.576 148.044 2.8272C150.301 4.0784 152.069 5.8192 153.348 8.0496C154.653 10.28 155.306 12.796 155.306 15.5976C155.306 18.3992 154.653 20.9288 153.348 23.1864C152.042 25.4168 150.274 27.1576 148.044 28.4088C145.813 29.66 143.352 30.2856 140.659 30.2856ZM140.659 23.9208C142.944 23.9208 144.766 23.1592 146.126 21.636C147.513 20.1128 148.207 18.1 148.207 15.5976C148.207 13.068 147.513 11.0552 146.126 9.5592C144.766 8.036 142.944 7.2744 140.659 7.2744C138.347 7.2744 136.497 8.0224 135.11 9.5184C133.75 11.0144 133.07 13.0408 133.07 15.5976C133.07 18.1272 133.75 20.1536 135.11 21.6768C136.497 23.1728 138.347 23.9208 140.659 23.9208ZM181.015 10.5792C181.015 12.2384 180.635 13.7616 179.873 15.1488C179.111 16.5088 177.942 17.6104 176.364 18.4536C174.787 19.2968 172.828 19.7184 170.489 19.7184H166.164V30H159.187V1.3584H170.489C172.774 1.3584 174.705 1.7528 176.283 2.5416C177.86 3.3304 179.043 4.4184 179.832 5.8056C180.621 7.1928 181.015 8.784 181.015 10.5792ZM169.959 14.1696C171.291 14.1696 172.284 13.8568 172.937 13.2312C173.59 12.6056 173.916 11.7216 173.916 10.5792C173.916 9.4368 173.59 8.5528 172.937 7.9272C172.284 7.3016 171.291 6.9888 169.959 6.9888H166.164V14.1696H169.959Z" fill="#7F5AF0"/>
</svg>
