<svg width="177" height="27" viewBox="0 0 177 27" fill="none" xmlns="http://www.w3.org/2000/svg">
<path d="M12.9516 1.35823C13.5141 -0.368596 15.9571 -0.368596 16.5177 1.35823L18.5239 7.53056C18.6465 7.90646 18.8848 8.234 19.2047 8.46635C19.5246 8.6987 19.9097 8.82398 20.3051 8.82427H26.7962C28.613 8.82427 29.3667 11.1492 27.8987 12.2179L22.6488 16.0316C22.3282 16.2641 22.0895 16.5922 21.9669 16.9688C21.8443 17.3453 21.8441 17.7511 21.9663 18.1278L23.9725 24.3001C24.535 26.0269 22.5569 27.465 21.0851 26.3963L15.8352 22.5826C15.515 22.3501 15.1294 22.2249 14.7337 22.2249C14.338 22.2249 13.9524 22.3501 13.6322 22.5826L8.38233 26.3963C6.91237 27.465 4.93618 26.0269 5.49679 24.3001L7.50298 18.1278C7.62518 17.7511 7.62496 17.3453 7.50235 16.9688C7.37975 16.5922 7.14106 16.2641 6.8205 16.0316L1.57252 12.2198C0.104438 11.1511 0.860042 8.82614 2.67499 8.82614H9.16418C9.55989 8.82625 9.94548 8.70116 10.2658 8.46878C10.586 8.23639 10.8246 7.90864 10.9473 7.53243L12.9535 1.3601L12.9516 1.35823Z" fill="#F2AE00"/>
<path d="M49.9197 1.35823C50.4821 -0.368596 52.9252 -0.368596 53.4858 1.35823L55.492 7.53056C55.6146 7.90646 55.8528 8.234 56.1727 8.46635C56.4926 8.6987 56.8778 8.82398 57.2732 8.82427H63.7643C65.5811 8.82427 66.3348 11.1492 64.8667 12.2179L59.6169 16.0316C59.2963 16.2641 59.0576 16.5922 58.935 16.9688C58.8124 17.3453 58.8122 17.7511 58.9344 18.1278L60.9406 24.3001C61.5031 26.0269 59.525 27.465 58.0532 26.3963L52.8033 22.5826C52.4831 22.3501 52.0975 22.2249 51.7018 22.2249C51.3061 22.2249 50.9205 22.3501 50.6003 22.5826L45.3504 26.3963C43.8804 27.465 41.9043 26.0269 42.4649 24.3001L44.4711 18.1278C44.5933 17.7511 44.593 17.3453 44.4704 16.9688C44.3478 16.5922 44.1091 16.2641 43.7886 16.0316L38.5406 12.2198C37.0725 11.1511 37.8281 8.82614 39.6431 8.82614H46.1323C46.528 8.82625 46.9136 8.70116 47.2338 8.46878C47.5541 8.23639 47.7927 7.90864 47.9153 7.53243L49.9215 1.3601L49.9197 1.35823Z" fill="#F2AE00"/>
<path d="M86.8877 1.35823C87.4502 -0.368596 89.8933 -0.368596 90.4539 1.35823L92.4601 7.53056C92.5827 7.90646 92.8209 8.234 93.1408 8.46635C93.4607 8.6987 93.8459 8.82398 94.2413 8.82427H100.732C102.549 8.82427 103.303 11.1492 101.835 12.2179L96.585 16.0316C96.2644 16.2641 96.0257 16.5922 95.9031 16.9688C95.7805 17.3453 95.7803 17.7511 95.9025 18.1278L97.9087 24.3001C98.4712 26.0269 96.4931 27.465 95.0213 26.3963L89.7714 22.5826C89.4512 22.3501 89.0656 22.2249 88.6699 22.2249C88.2742 22.2249 87.8886 22.3501 87.5684 22.5826L82.3185 26.3963C80.8485 27.465 78.8723 26.0269 79.433 24.3001L81.4392 18.1278C81.5613 17.7511 81.5611 17.3453 81.4385 16.9688C81.3159 16.5922 81.0772 16.2641 80.7567 16.0316L75.5087 12.2198C74.0406 11.1511 74.7962 8.82614 76.6112 8.82614H83.1004C83.4961 8.82625 83.8816 8.70116 84.2019 8.46878C84.5222 8.23639 84.7608 7.90864 84.8834 7.53243L86.8896 1.3601L86.8877 1.35823Z" fill="#F2AE00"/>
<path d="M123.856 1.35823C124.418 -0.368596 126.861 -0.368596 127.422 1.35823L129.428 7.53056C129.551 7.90646 129.789 8.234 130.109 8.46635C130.429 8.6987 130.814 8.82398 131.209 8.82427H137.7C139.517 8.82427 140.271 11.1492 138.803 12.2179L133.553 16.0316C133.233 16.2641 132.994 16.5922 132.871 16.9688C132.749 17.3453 132.748 17.7511 132.871 18.1278L134.877 24.3001C135.439 26.0269 133.461 27.465 131.989 26.3963L126.74 22.5826C126.419 22.3501 126.034 22.2249 125.638 22.2249C125.242 22.2249 124.857 22.3501 124.536 22.5826L119.287 26.3963C117.817 27.465 115.84 26.0269 116.401 24.3001L118.407 18.1278C118.529 17.7511 118.529 17.3453 118.407 16.9688C118.284 16.5922 118.045 16.2641 117.725 16.0316L112.477 12.2198C111.009 11.1511 111.764 8.82614 113.579 8.82614H120.068C120.464 8.82625 120.85 8.70116 121.17 8.46878C121.49 8.23639 121.729 7.90864 121.852 7.53243L123.858 1.3601L123.856 1.35823Z" fill="#F2AE00"/>
<path d="M163.85 1.53367L163.85 1.53386L165.856 7.70618L165.856 7.70669C166.016 8.1965 166.326 8.62329 166.743 8.92606C167.16 9.22882 167.662 9.39206 168.177 9.39244H168.177H174.669C175.933 9.39244 176.461 11.0125 175.437 11.7586L170.188 15.5717C170.187 15.5717 170.187 15.5718 170.187 15.5718C170.187 15.5718 170.187 15.5719 170.187 15.5719C169.77 15.8749 169.459 16.3023 169.299 16.7929C169.139 17.2836 169.139 17.8122 169.298 18.3031L169.298 18.3034L171.305 24.4757L171.305 24.4761C171.696 25.678 170.319 26.6826 169.291 25.9366C169.291 25.9366 169.291 25.9365 169.291 25.9365L164.042 22.1229L164.041 22.1229C163.624 21.8199 163.122 21.6568 162.606 21.6568C162.09 21.6568 161.588 21.8199 161.171 22.1229L161.171 22.1229L155.921 25.9366L155.921 25.9367C154.897 26.681 153.518 25.6801 153.91 24.4755L155.916 18.3034L155.916 18.3031C156.075 17.8122 156.075 17.2835 155.915 16.7929C155.755 16.3022 155.444 15.8747 155.026 15.5717L149.779 11.7605C148.755 11.0148 149.284 9.39431 150.547 9.39431H157.036C157.036 9.39431 157.036 9.39431 157.037 9.39431C157.552 9.39441 158.054 9.23142 158.472 8.92865C158.889 8.62585 159.2 8.19877 159.36 7.70856L159.36 7.70806L161.366 1.53573L161.392 1.45667C161.831 0.330089 163.468 0.357723 163.85 1.53367Z" stroke="#F2AE00" stroke-width="1.13633"/>
</svg>
